<svg id="Layer_1" data-name="Layer 1" xmlns="http://www.w3.org/2000/svg" xmlns:xlink="http://www.w3.org/1999/xlink" viewBox="0 0 207.23 210.45"><defs><style>.cls-1{fill:#fff;}.cls-2{fill:url(#linear-gradient);}.cls-3{fill:#8167a9;}.cls-4{fill:#e485a4;}.cls-5{fill:#854625;}.cls-6{fill:#f8d3af;}.cls-7{fill:#3e307d;}.cls-8{fill:#281a11;}.cls-9{fill:#f39b7e;}.cls-10{fill:#271012;}</style><linearGradient id="linear-gradient" x1="29.11" y1="32.68" x2="184.67" y2="32.68" gradientTransform="matrix(1, 0, 0, -1, 0, 139.28)" gradientUnits="userSpaceOnUse"><stop offset="0.01" stop-color="#e584a3"/><stop offset="0.23" stop-color="#d37fa4"/><stop offset="0.69" stop-color="#a471a7"/><stop offset="1" stop-color="#8167a9"/></linearGradient></defs><title>logo</title><circle class="cls-1" cx="103.61" cy="106.04" r="101.89"/><path class="cls-2" d="M158.33,89h-53.7c-19.06,0-19.75,4.5-19.75,8.66s9.64,4.9,19.75,4.9h51.29c24.93,0,28.75.29,28.75,5.84s-2.56,6.59-26,6.59c-10.21,0-10.21,13-.7,13s10.23,12.3.36,12.3-5.42,21.36-49.07,21.36-55.44-38.34-55.44-47.81c0,0,3.46.23,8.55.23s7.38-3,7.38-7.63-4.61-5.5-7.61-5.5S43,100.5,37,100.5s-7.85-3-7.85-6.89,3.69-4.5,8.78-4.5H56.83S67,51.52,107.65,51.52,158.33,89,158.33,89Z"/><path class="cls-3" d="M177.47,69.42a6.41,6.41,0,0,1-6.39,6.42H160.31a6.4,6.4,0,0,1-6.4-6.41h0a6.39,6.39,0,0,1,6.4-6.4h10.74a6.4,6.4,0,0,1,6.42,6.39Z"/><path class="cls-4" d="M55.06,133.9A7.11,7.11,0,0,1,48,141H21.66a7.1,7.1,0,0,1-7.1-7.1h0a7.08,7.08,0,0,1,7.09-7.09H48A7.09,7.09,0,0,1,55.06,133.9Z"/><path class="cls-5" d="M131.21,42.72s-.93-12.47-21.71-10.61-28.64,8.53-34,17.55S72.31,66.52,73.47,71.6,76,79.68,76,83.62s3,8.53,3,3.69-.69-15.48,2.75-17.79-2.07,5.78,1.85,2.31A25.75,25.75,0,0,1,100,65.59c6.88-.23,11.77-1.61,14.09-3.69s4.13,1.38-1.62,3.93-9,4.39-3.92,4.13,14.32-1.85,18.24-6,4.4-2.08,4.4.46,2.3,5.31,3.92,7.16-.23,8.08,0,12.24,3.69,8.55,3.69,2.31,2.55-10.63,3.24-18.24,1.14-14.76-3.44-21.45S132.36,46.16,131.21,42.72Z"/><path class="cls-6" d="M139.28,81.55a25.43,25.43,0,0,0-.45,4.6c0,6.24-3.46,1.85-3.69-2.31s1.61-10.4,0-12.24-3.93-4.62-3.93-7.16-.42-4.66-4.39-.46-13.16,5.77-18.24,6-1.86-1.63,3.92-4.14,3.93-6,1.61-3.92S107,65.39,100,65.62a25.68,25.68,0,0,0-16.4,6.24c-3.93,3.47,1.61-4.62-1.85-2.32S79,82.49,79,87.33s-3,.24-3-3.69a18.1,18.1,0,0,0-.17-2.32s-5.18-2.26-7.94,1.59-1.38,10.63,1.37,13.87,7.85,2.75,7.85,2.75-1.15,6.71,3.47,15,10,12.26,18.82,15.15v12a7.94,7.94,0,0,0,7.84,7.79,7.4,7.4,0,0,0,7.41-7.4v-12s21.17-2.85,23.92-30.15a8,8,0,0,0,9-6.93,1.23,1.23,0,0,0,0-.19C149,84.7,146.18,80,139.28,81.55Z"/><path class="cls-7" d="M114.69,134.43v7.45a7.4,7.4,0,0,1-7.18,7.62h-.23a7.93,7.93,0,0,1-7.83-7.79v-7.28s-22.53,5.5-25.53,25.64c-1.16,7.39-1.61,20.1,9.47,20.1h39.73c11.55,0,22.64,0,17.55-21.95S114.69,134.43,114.69,134.43Z"/><path class="cls-8" d="M124.91,90.25a2.61,2.61,0,0,1-2.59,2.58h0a2.61,2.61,0,0,1-2.55-2.58V86.78a2.61,2.61,0,0,1,2.6-2.6h0a2.6,2.6,0,0,1,2.59,2.6Z"/><path class="cls-8" d="M95.44,90.25a2.6,2.6,0,0,1-2.6,2.58h0a2.6,2.6,0,0,1-2.6-2.6V86.78a2.6,2.6,0,0,1,2.6-2.6h0a2.6,2.6,0,0,1,2.6,2.6h0Z"/><path class="cls-9" d="M112.24,102.12a4.58,4.58,0,0,1-4.59,4.59h0a4.57,4.57,0,0,1-4.59-4.57v0l.44-8.26a4.12,4.12,0,0,1,3.8-4.43l.33,0h0c2.53,0,3.85,1.79,3.85,4.33Z"/><path class="cls-10" d="M107.6,111.43a26.13,26.13,0,0,0,6-.8c2.06-.66,3.94-2.17,5.37.51,1.79,3.36-2.75,9.48-11.55,9.48s-13.27-6.89-11-10.06S101.25,111.67,107.6,111.43Z"/><path class="cls-1" d="M116,111.28a3.86,3.86,0,0,0-.28-1.38c-.66.24-1.38.55-2.07.79a26.69,26.69,0,0,1-6,.8,18,18,0,0,1-7.67-1.78,3.66,3.66,0,0,0-.4,1.62,3.72,3.72,0,0,0,3.72,3.67h9a3.71,3.71,0,0,0,3.71-3.71Z"/><path class="cls-5" d="M115.93,81.66h-.23a.7.7,0,0,1-.43-.88,7.76,7.76,0,0,1,14.14-.11.73.73,0,0,1-.43.9.71.71,0,0,1-.88-.43,6.38,6.38,0,0,0-11.45,0A.7.7,0,0,1,115.93,81.66Z"/><path class="cls-5" d="M86.46,81.66h-.23a.7.7,0,0,1-.43-.88,7,7,0,0,1,7-4.53,7,7,0,0,1,7,4.45.71.71,0,0,1-.43.89.7.7,0,0,1-.88-.42,6.39,6.39,0,0,0-11.46,0A.67.67,0,0,1,86.46,81.66Z"/></svg>